<?xml version="1.0" encoding="UTF-8" standalone="no"?>
<!DOCTYPE svg PUBLIC "-//W3C//DTD SVG 1.1//EN" "http://www.w3.org/Graphics/SVG/1.1/DTD/svg11.dtd">
<svg width="100%" height="100%" viewBox="0 0 1280 640" version="1.1" xmlns="http://www.w3.org/2000/svg" xmlns:xlink="http://www.w3.org/1999/xlink" xml:space="preserve" xmlns:serif="http://www.serif.com/" style="fill-rule:evenodd;clip-rule:evenodd;stroke-linecap:round;stroke-linejoin:round;stroke-miterlimit:1.5;">
    <g transform="matrix(0.1,0,0,-0.1,0,640)">
        <path d="M320,3736C168,3692 63,3593 20,3452C-46,3239 70,2993 284,2890C394,2838 461,2826 627,2833C919,2843 1150,2935 1591,3215C1671,3266 1772,3326 1816,3348C1931,3405 2189,3514 2341,3569L2472,3617L2422,3624C2299,3640 2069,3576 1764,3440C1611,3372 1580,3355 1310,3200C1141,3102 963,3019 870,2995C721,2956 486,2986 373,3059C264,3129 178,3250 164,3351C146,3480 271,3589 448,3598C525,3602 535,3600 594,3571C670,3534 749,3459 781,3393C799,3358 806,3323 808,3263C810,3217 815,3180 819,3180C834,3180 900,3306 911,3358C945,3508 840,3652 648,3720C570,3748 390,3757 320,3736Z" style="fill-rule:nonzero;"/>
        <g transform="matrix(1,0,0,1,0,128.882)">
            <path d="M12200,3734C11968,3673 11841,3507 11894,3337C11909,3287 11969,3180 11981,3180C11985,3180 11990,3217 11992,3263C11994,3323 12001,3358 12019,3393C12051,3459 12130,3534 12206,3571C12265,3600 12275,3602 12352,3598C12455,3592 12525,3564 12579,3505C12601,3481 12624,3444 12631,3421C12664,3311 12559,3135 12409,3047C12304,2985 12066,2959 11931,2994C11834,3020 11674,3094 11502,3193C11213,3359 11190,3371 11036,3440C10731,3576 10501,3640 10378,3624L10328,3617L10459,3569C10611,3514 10869,3405 10984,3348C11028,3326 11129,3266 11209,3215C11646,2938 11881,2844 12166,2833C12331,2826 12411,2839 12516,2890C12729,2993 12845,3241 12780,3452C12736,3595 12629,3695 12475,3736C12410,3754 12270,3753 12200,3734Z" style="fill-rule:nonzero;"/>
        </g>
        <g transform="matrix(1,0,0,1,0,128.882)">
            <path d="M9332,3679C8907,3655 8366,3558 7905,3424C7839,3405 7675,3354 7540,3310C6798,3072 6501,3012 6108,3022C6016,3024 5942,3025 5943,3024C5945,3022 6002,3013 6070,3003C6246,2978 6716,2979 6920,3003C7368,3058 7747,3147 8277,3321C8546,3409 8665,3437 8920,3474C9334,3534 9752,3524 9980,3449C10164,3389 10280,3289 10280,3192C10280,3152 10275,3142 10237,3106C10172,3043 10100,3025 9925,3025C9801,3025 9778,3028 9725,3049C9641,3083 9571,3156 9518,3265C9472,3361 9467,3361 9435,3262C9388,3119 9469,2984 9655,2895C9774,2838 9850,2819 9995,2813C10188,2804 10311,2844 10419,2949C10572,3099 10540,3293 10333,3458C10172,3588 9971,3661 9728,3680C9591,3691 9527,3691 9332,3679Z" style="fill-rule:nonzero;"/>
        </g>
        <path d="M2504,3520C2381,3507 2288,3467 2208,3392C2135,3324 2106,3262 2105,3175C2105,3114 2110,3097 2139,3042C2178,2970 2287,2862 2372,2812C2457,2762 2577,2712 2687,2683C2783,2657 2792,2656 3080,2655C3409,2655 3546,2667 3900,2726C4311,2795 4583,2863 5055,3016C5591,3190 5854,3258 6140,3295C6268,3312 6552,3319 6650,3307C6693,3302 6697,3303 6670,3310C6585,3331 6339,3350 6137,3350C5589,3350 5071,3252 4335,3010C4075,2925 3897,2884 3630,2848C3493,2830 3416,2826 3180,2825C2920,2825 2885,2827 2780,2848C2644,2876 2545,2912 2467,2964C2246,3111 2309,3275 2599,3310C2782,3333 2934,3290 3021,3192C3060,3148 3130,3020 3130,2993C3130,2964 3149,2983 3170,3033C3201,3102 3202,3188 3173,3252C3094,3426 2786,3549 2504,3520Z" style="fill-rule:nonzero;"/>
        <g transform="matrix(14.1304,0,0,-10,-855.871,6050.66)">
            <path d="M513.492,198.783C520.061,181.961 533.199,181.961 539.769,190.372C546.338,198.783 546.338,215.606 539.769,232.428C535.17,245.045 523.346,257.662 513.492,266.073C503.639,257.662 491.814,245.045 487.216,232.428C480.647,215.606 480.647,198.783 487.216,190.372C493.785,181.961 506.923,181.961 513.492,198.783Z" style="stroke:black;stroke-width:9.16px;"/>
        </g>
        <g transform="matrix(-14.1304,-1.73048e-15,-1.22465e-15,10,13655.9,417.17)">
            <path d="M513.492,198.783C520.061,181.961 533.199,181.961 539.769,190.372C546.338,198.783 546.338,215.606 539.769,232.428C535.17,245.045 523.346,257.662 513.492,266.073C503.639,257.662 491.814,245.045 487.216,232.428C480.647,215.606 480.647,198.783 487.216,190.372C493.785,181.961 506.923,181.961 513.492,198.783Z" style="stroke:black;stroke-width:9.16px;"/>
        </g>
    </g>
</svg>
