<?xml version="1.0" encoding="UTF-8" standalone="no"?>
<!DOCTYPE svg PUBLIC "-//W3C//DTD SVG 1.1//EN" "http://www.w3.org/Graphics/SVG/1.1/DTD/svg11.dtd">
<svg width="100%" height="100%" viewBox="0 0 1280 640" version="1.1" xmlns="http://www.w3.org/2000/svg" xmlns:xlink="http://www.w3.org/1999/xlink" xml:space="preserve" xmlns:serif="http://www.serif.com/" style="fill-rule:evenodd;clip-rule:evenodd;stroke-linecap:round;stroke-linejoin:round;stroke-miterlimit:1.5;">
    <g transform="matrix(0.1,0,0,-0.1,0,640)">
        <g transform="matrix(-1,1.22465e-16,-1.22465e-16,-1,12799.2,5987.08)">
            <path d="M6053,3465C5947,3435 5827,3363 5677,3238C5645,3212 5615,3190 5611,3190C5606,3190 5600,3219 5598,3254C5591,3331 5560,3394 5511,3427C5447,3471 5338,3449 5299,3386C5275,3347 5275,3313 5299,3277C5330,3229 5356,3217 5411,3224C5438,3228 5460,3228 5460,3225C5460,3222 5453,3206 5445,3191C5408,3118 5309,3080 5208,3099C5120,3115 5043,3149 4994,3193C4953,3231 4947,3241 4943,3286C4938,3332 4940,3339 4965,3358C5002,3387 5054,3387 5075,3358C5083,3345 5093,3318 5097,3297C5103,3254 5112,3246 5140,3255C5156,3260 5160,3270 5160,3311C5160,3368 5142,3409 5104,3439C5083,3455 5063,3460 5013,3460C4955,3460 4945,3457 4920,3431C4902,3413 4884,3379 4874,3341C4864,3308 4851,3280 4844,3280C4838,3280 4771,3311 4697,3349C4461,3468 4493,3464 3815,3464C3260,3463 3231,3462 3145,3442C3040,3417 2928,3379 2775,3317C2666,3272 2546,3241 2533,3254C2524,3262 2541,3291 2561,3302C2569,3306 2592,3316 2613,3324C2645,3337 2650,3343 2650,3370C2650,3393 2644,3403 2628,3409C2579,3427 2502,3383 2430,3296C2392,3249 2381,3242 2360,3247C2316,3257 2249,3289 2218,3315C2202,3329 2181,3340 2171,3340C2161,3340 2133,3320 2107,3295L2061,3249L1158,3252C227,3255 122,3252 33,3214C-2,3200 -10,3176 16,3166C25,3163 420,3160 894,3160C1369,3160 1826,3157 1911,3154L2065,3147L2101,3109C2121,3087 2146,3070 2156,3070C2167,3070 2192,3084 2212,3100C2263,3142 2328,3170 2377,3170C2416,3170 2421,3166 2451,3124C2549,2981 2780,2998 3176,3178C3301,3234 3335,3243 3402,3234L3450,3227L3428,3191C3380,3115 3409,2989 3480,2960C3505,2949 3518,2950 3554,2964C3636,2995 3660,3073 3616,3163C3602,3193 3590,3224 3590,3233C3590,3256 3674,3316 3734,3336C3806,3360 3915,3351 4010,3313C4100,3276 4110,3256 4048,3240C3914,3206 3860,3160 3860,3080C3860,3015 3928,2950 3995,2950C4054,2950 4125,3000 4118,3037C4114,3056 4096,3058 4008,3045C3963,3038 3961,3039 3954,3064C3946,3099 3975,3148 4020,3171C4086,3207 4170,3193 4383,3114C4540,3055 4768,2988 4900,2960C5243,2890 5440,2947 5755,3210C5947,3370 6023,3405 6160,3397C6309,3389 6404.53,3318.62 6309.53,3290.62C6257.53,3274.62 6476.86,3322.35 6480.86,3334.35C6490.86,3365.35 6594,3410 6662,3410C6769,3410 6892,3347 7118,3176C7297,3041 7335,3019 7486,2965C7573,2933 7592,2930 7689,2930C7950,2930 8138,2974 8625,3150C8740,3191 8808,3195 8844,3161C8873,3133 8879,3086 8856,3054C8845,3039 8829,3035 8783,3035C8734,3035 8725,3032 8722,3016C8716,2986 8748,2970 8809,2970C8935,2970 8997,3075 8928,3173C8903,3208 8860,3230 8790,3245L8735,3256L8785,3288C8944,3391 9144,3397 9250,3302L9293,3264L9256,3229C9235,3210 9212,3183 9204,3168C9185,3131 9186,3064 9207,3029C9224,3000 9274,2970 9305,2970C9329,2970 9372,2995 9400,3025C9423,3050 9425,3059 9424,3141C9422,3229 9423,3230 9446,3230C9484,3230 9588,3192 9665,3151C9785,3086 9868,3059 10000,3040C10139,3020 10291,3062 10364,3139C10406,3182 10444,3180 10529,3130C10566,3108 10609,3090 10624,3090C10639,3090 10680,3108 10716,3129C10767,3160 10796,3170 10848,3176C10885,3180 11337,3181 11852,3178L12790,3173L12796,3207C12800,3226 12799,3244 12795,3248C12791,3252 12369,3255 11857,3255C10896,3255 10808,3258 10707,3296C10627,3326 10603,3326 10559,3291C10506,3248 10454,3227 10425,3237C10412,3241 10387,3268 10368,3295C10324,3362 10277,3385 10184,3385C10109,3385 10080,3372 10080,3339C10080,3321 10086,3320 10150,3326C10228,3334 10270,3322 10295,3284C10315,3252 10314,3233 10290,3225C10254,3214 10125,3239 10010,3280C9672,3401 9293,3464 8895,3464C8536,3465 8370,3434 8128,3319C8034,3275 7974,3252 7968,3258C7963,3263 7955,3292 7951,3323C7947,3353 7936,3389 7928,3402C7903,3440 7845,3463 7792,3457C7737,3451 7701,3425 7676,3375C7654,3330 7663,3307 7703,3302C7725,3299 7734,3306 7751,3335C7781,3386 7802,3394 7834,3369C7879,3333 7886,3250 7847,3199C7832,3179 7730,3113 7693,3099C7539,3041 7372,3094 7345,3211L7338,3238L7413,3236C7506,3235 7530,3251 7530,3316C7530,3366 7495,3415 7443,3436C7334,3482 7233,3407 7215,3265C7211,3233 7204,3210 7197,3210C7183,3210 7136,3242 7025,3325C6929,3397 6827,3445 6729,3466C6635,3485 6594,3479 6492,3427L6409,3385L6377,3404C6252,3477 6158,3495 6053,3465ZM3630,3376C3630,3357 3618,3345 3576,3321C3517,3287 3481,3283 3386,3301C3296,3317 3163,3283 2900,3174C2803,3134 2772,3126 2704,3122C2656,3119 2608,3122 2587,3129C2550,3141 2523,3166 2533,3177C2537,3180 2583,3193 2637,3206C2691,3219 2817,3257 2916,3290C3173,3374 3298,3399 3483,3399L3630,3400L3630,3376ZM4370,3384C4502,3359 4612,3315 4832,3199C5110,3053 5126,3046 5228,3048C5273,3048 5320,3052 5330,3055C5356,3063 5356,3044 5330,3030C5319,3024 5274,3014 5230,3008C5049,2983 4866,3032 4452,3219C4341,3269 4212,3322 4167,3336C4071,3366 4058,3372 4052,3388C4046,3406 4270,3403 4370,3384ZM8750,3381C8750,3369 8741,3359 8728,3354C8715,3351 8588,3296 8445,3233C8114,3086 8066,3067 7950,3037C7823,3003 7777,2997 7730,3005C7673,3015 7680,3034 7749,3060C7782,3072 7839,3100 7877,3122C8032,3213 8263,3320 8385,3357C8469,3383 8570,3398 8663,3399C8743,3400 8750,3398 8750,3381ZM9445,3380C9565,3365 9738,3321 9912,3260C9991,3232 10098,3203 10150,3194C10256,3176 10288,3158 10255,3134C10230,3115 10174,3100 10130,3100C10077,3100 10004,3121 9820,3190C9638,3258 9519,3290 9447,3290C9387,3290 9340,3309 9312,3345C9280,3385 9284,3400 9323,3395C9340,3392 9396,3386 9445,3380ZM10652,3233C10675,3212 10675,3193 10650,3180C10626,3167 10580,3177 10580,3196C10580,3210 10614,3250 10627,3250C10630,3250 10642,3243 10652,3233ZM2225,3216C2241,3204 2242,3200 2231,3186C2214,3166 2166,3165 2150,3185C2122,3219 2185,3246 2225,3216ZM9345,3179C9356,3146 9341,3091 9319,3079C9285,3061 9270,3075 9270,3124C9270,3159 9275,3172 9292,3184C9322,3206 9337,3204 9345,3179ZM3540,3149C3546,3139 3550,3115 3550,3096C3550,3065 3547,3060 3526,3060C3504,3060 3500,3066 3494,3105C3491,3130 3490,3156 3494,3165C3501,3183 3527,3174 3540,3149Z" style="fill-rule:nonzero;"/>
        </g>
        <g transform="matrix(14.1304,-3.46096e-15,-2.44929e-15,-10,-869.537,5327.33)">
            <path d="M513.492,198.783C520.061,181.961 533.199,181.961 539.769,190.372C546.338,198.783 546.338,215.606 539.769,232.428C535.17,245.045 523.346,257.662 513.492,266.073C503.639,257.662 491.814,245.045 487.216,232.428C480.647,215.606 480.647,198.783 487.216,190.372C493.785,181.961 506.923,181.961 513.492,198.783Z" style="stroke:black;stroke-width:9.16px;"/>
        </g>
    </g>
</svg>
